<?xml version="1.0" encoding="UTF-8" standalone="no" ?>
<!DOCTYPE svg PUBLIC "-//W3C//DTD SVG 1.1//EN" "http://www.w3.org/Graphics/SVG/1.1/DTD/svg11.dtd">
<svg xmlns="http://www.w3.org/2000/svg" xmlns:xlink="http://www.w3.org/1999/xlink" version="1.1" width="1080" height="1080" viewBox="0 0 1080 1080" xml:space="preserve">
<desc>Created with Fabric.js 4.2.0</desc>
<defs>
</defs>
<g transform="matrix(1 0 0 1 540 540)" id="9daa75ff-f6c9-44b0-bd8c-1a47ce7db3b9"  >
<rect style="stroke: none; stroke-width: 1; stroke-dasharray: none; stroke-linecap: butt; stroke-dashoffset: 0; stroke-linejoin: miter; stroke-miterlimit: 4; fill: rgb(255,255,255); fill-rule: nonzero; opacity: 1;" vector-effect="non-scaling-stroke"  x="-540" y="-540" rx="0" ry="0" width="1080" height="1080" />
</g>
<g transform="matrix(1 0 0 1 540 540)" id="89583e07-65dd-43c9-885f-edf8ed7bce84"  >
</g>
<g transform="matrix(8.71 0 0 1.62 474.34 234.78)" id="daa164ea-2826-4856-a0f5-b1227db21288"  >
<rect style="stroke: rgb(0,0,0); stroke-width: 0; stroke-dasharray: none; stroke-linecap: butt; stroke-dashoffset: 0; stroke-linejoin: miter; stroke-miterlimit: 4; fill: rgb(126,61,34); fill-rule: nonzero; opacity: 1;" vector-effect="non-scaling-stroke"  x="-37.46" y="-19.415" rx="0" ry="0" width="74.92" height="38.83" />
</g>
<g transform="matrix(0 -11.17 1.62 0 181.24 631.82)" id="daa164ea-2826-4856-a0f5-b1227db21288"  >
<rect style="stroke: rgb(0,0,0); stroke-width: 0; stroke-dasharray: none; stroke-linecap: butt; stroke-dashoffset: 0; stroke-linejoin: miter; stroke-miterlimit: 4; fill: rgb(126,61,34); fill-rule: nonzero; opacity: 1;" vector-effect="non-scaling-stroke"  x="-37.46" y="-19.415" rx="0" ry="0" width="74.92" height="38.83" />
</g>
<g transform="matrix(3.19 -4.08 1.28 1 303.75 385.62)" id="daa164ea-2826-4856-a0f5-b1227db21288"  >
<rect style="stroke: rgb(0,0,0); stroke-width: 0; stroke-dasharray: none; stroke-linecap: butt; stroke-dashoffset: 0; stroke-linejoin: miter; stroke-miterlimit: 4; fill: rgb(126,61,34); fill-rule: nonzero; opacity: 1;" vector-effect="non-scaling-stroke"  x="-37.46" y="-19.415" rx="0" ry="0" width="74.92" height="38.83" />
</g>
<g transform="matrix(0 -3.04 0.39 0 763.55 380.73)" id="daa164ea-2826-4856-a0f5-b1227db21288"  >
<rect style="stroke: rgb(0,0,0); stroke-width: 0; stroke-dasharray: none; stroke-linecap: butt; stroke-dashoffset: 0; stroke-linejoin: miter; stroke-miterlimit: 4; fill: rgb(175,108,80); fill-rule: nonzero; opacity: 1;" vector-effect="non-scaling-stroke"  x="-37.46" y="-19.415" rx="0" ry="0" width="74.92" height="38.83" />
</g>
<g transform="matrix(1 0 0 1 766.45 551.64)"  >
<path style="stroke: rgb(0,0,0); stroke-width: 12.6; stroke-dasharray: none; stroke-linecap: round; stroke-dashoffset: 0; stroke-linejoin: round; stroke-miterlimit: 10; fill: none; fill-rule: nonzero; opacity: 1;" vector-effect="non-scaling-stroke"  transform=" translate(-766.45, -551.64)" d="M 770.8190516129032 488.93225983650456 Q 770.8064516129032 488.93225983650456 767.3225806451612 488.93225983650456 Q 763.8387096774194 488.93225983650456 762.9677419354839 488.93225983650456 Q 762.0967741935484 488.93225983650456 760.3548387096774 489.80322757844004 Q 758.6129032258065 490.67419532037553 753.3870967741935 490.67419532037553 Q 748.1612903225806 490.67419532037553 746.4193548387096 492.41613080424645 Q 744.6774193548387 494.1580662881174 742.9354838709678 494.1580662881174 Q 741.1935483870968 494.1580662881174 740.3225806451613 495.0290340300529 Q 739.4516129032259 495.9000017719884 738.5806451612904 495.9000017719884 Q 737.7096774193549 495.9000017719884 736.8387096774194 495.9000017719884 Q 735.9677419354839 495.9000017719884 735.9677419354839 496.7709695139239 Q 735.9677419354839 497.6419372558594 735.0967741935484 498.51290499779486 Q 734.2258064516129 499.38387273973035 733.3548387096774 501.1258082236013 Q 732.483870967742 502.8677437074723 731.6129032258065 504.6096791913433 Q 730.741935483871 506.3516146752142 730.741935483871 507.2225824171497 Q 730.741935483871 508.09355015908517 730.741935483871 509.83548564295614 Q 730.741935483871 511.5774211268271 729 514.1903243526335 Q 727.258064516129 516.80322757844 726.3870967741935 519.4161308042464 Q 725.516129032258 522.0290340300529 725.516129032258 522.9000017719884 Q 725.516129032258 523.7709695139239 724.6451612903226 524.6419372558594 Q 723.7741935483871 525.5129049977949 723.7741935483871 527.2548404816658 Q 723.7741935483871 528.9967759655368 722.9032258064516 528.9967759655368 Q 722.0322580645161 528.9967759655368 721.1612903225806 530.7387114494078 Q 720.2903225806451 532.4806469332788 719.4193548387096 534.2225824171497 Q 718.5483870967741 535.9645179010207 717.6774193548387 537.7064533848916 Q 716.8064516129032 539.4483888687625 715.9354838709678 540.319356610698 Q 715.0645161290323 541.1903243526335 713.3225806451613 542.9322598365045 Q 711.5806451612904 544.6741953203755 711.5806451612904 545.545163062311 Q 711.5806451612904 546.4161308042464 710.7096774193549 548.1580662881174 Q 709.8387096774194 549.9000017719884 709.8387096774194 552.5129049977949 Q 709.8387096774194 555.1258082236013 708.9677419354839 558.6096791913433 Q 708.0967741935484 562.0935501590852 707.2258064516129 562.9645179010207 Q 706.3548387096774 563.8354856429562 706.3548387096774 564.7064533848917 Q 706.3548387096774 565.5774211268272 706.3548387096774 566.4483888687625 Q 706.3548387096774 567.319356610698 706.3548387096774 570.80322757844 Q 706.3548387096774 574.2870985461819 706.3548387096774 576.9000017719884 Q 706.3548387096774 579.5129049977949 706.3548387096774 580.3838727397304 Q 706.3548387096774 581.2548404816658 706.3548387096774 582.9967759655368 Q 706.3548387096774 584.7387114494078 707.2258064516129 585.6096791913433 Q 708.0967741935484 586.4806469332788 710.7096774193549 590.8354856429562 Q 713.3225806451613 595.1903243526335 715.0645161290322 596.061292094569 Q 716.8064516129032 596.9322598365045 717.6774193548387 598.6741953203755 Q 718.5483870967741 600.4161308042464 720.2903225806451 601.2870985461819 Q 722.0322580645161 602.1580662881174 723.7741935483871 603.9000017719884 Q 725.516129032258 605.6419372558594 727.258064516129 607.3838727397304 Q 729 609.1258082236013 730.741935483871 609.9967759655368 Q 732.483870967742 610.8677437074723 735.0967741935484 610.8677437074723 Q 737.7096774193549 610.8677437074723 738.5806451612904 611.7387114494078 Q 739.4516129032259 612.6096791913433 740.3225806451613 612.6096791913433 Q 741.1935483870968 612.6096791913433 742.9354838709678 613.4806469332788 Q 744.6774193548387 614.3516146752143 745.5483870967741 614.3516146752143 Q 746.4193548387096 614.3516146752143 747.2903225806451 614.3516146752143 Q 748.1612903225806 614.3516146752143 749.0322580645161 614.3516146752143 Q 749.9032258064516 614.3516146752143 750.7741935483871 614.3516146752143 Q 751.6451612903226 614.3516146752143 754.258064516129 614.3516146752143 Q 756.8709677419355 614.3516146752143 759.483870967742 614.3516146752143 Q 762.0967741935484 614.3516146752143 763.8387096774194 614.3516146752143 Q 765.5806451612904 614.3516146752143 767.3225806451613 614.3516146752143 Q 769.0645161290323 614.3516146752143 769.9354838709678 614.3516146752143 Q 770.8064516129032 614.3516146752143 771.6774193548387 614.3516146752143 Q 772.5483870967741 614.3516146752143 773.4193548387096 613.4806469332788 Q 774.2903225806451 612.6096791913433 777.7741935483871 612.6096791913433 Q 781.258064516129 612.6096791913433 783 611.7387114494078 Q 784.741935483871 610.8677437074723 785.6129032258065 610.8677437074723 Q 786.483870967742 610.8677437074723 788.2258064516129 609.9967759655368 Q 789.9677419354839 609.1258082236013 790.8387096774194 608.2548404816658 Q 791.7096774193549 607.3838727397304 793.4516129032259 606.5129049977949 Q 795.1935483870968 605.6419372558594 796.0645161290323 604.7709695139239 Q 796.9354838709678 603.9000017719884 799.5483870967741 602.1580662881174 Q 802.1612903225806 600.4161308042464 803.9032258064516 599.545163062311 Q 805.6451612903226 598.6741953203755 807.3870967741935 597.80322757844 Q 809.1290322580645 596.9322598365045 809.1290322580645 596.061292094569 Q 809.1290322580645 595.1903243526335 812.6129032258065 593.4483888687625 Q 816.0967741935484 591.7064533848917 816.9677419354839 589.0935501590852 Q 817.8387096774194 586.4806469332788 819.5806451612904 582.1258082236013 Q 821.3225806451613 577.7709695139239 822.1935483870968 574.2870985461819 Q 823.0645161290323 570.80322757844 823.0645161290323 567.3193566106982 Q 823.0645161290323 563.8354856429562 824.8064516129032 560.3516146752143 Q 826.5483870967741 556.8677437074723 826.5483870967741 554.2548404816658 Q 826.5483870967741 551.6419372558594 826.5483870967741 550.7709695139239 Q 826.5483870967741 549.9000017719884 826.5483870967741 546.4161308042464 Q 826.5483870967741 542.9322598365045 826.5483870967741 540.3193566106982 Q 826.5483870967741 537.7064533848917 826.5483870967741 535.9645179010207 Q 826.5483870967741 534.2225824171497 825.6774193548387 528.9967759655368 Q 824.8064516129032 523.7709695139239 824.8064516129032 520.2870985461819 Q 824.8064516129032 516.80322757844 823.9354838709678 515.9322598365045 Q 823.0645161290323 515.061292094569 822.1935483870968 512.4483888687625 Q 821.3225806451613 509.83548564295614 820.4516129032259 508.09355015908517 Q 819.5806451612904 506.3516146752142 818.7096774193549 505.48064693327876 Q 817.8387096774194 504.6096791913433 816.0967741935484 503.7387114494078 Q 814.3548387096774 502.8677437074723 813.483870967742 502.8677437074723 Q 812.6129032258065 502.8677437074723 811.741935483871 502.8677437074723 Q 810.8709677419355 502.8677437074723 810 501.1258082236013 Q 809.1290322580645 499.38387273973035 808.258064516129 499.38387273973035 Q 807.3870967741935 499.38387273973035 804.7741935483871 499.38387273973035 Q 802.1612903225806 499.38387273973035 798.6774193548388 498.51290499779486 Q 795.1935483870968 497.6419372558594 794.3225806451613 497.6419372558594 Q 793.4516129032259 497.6419372558594 791.7096774193549 497.6419372558594 Q 789.9677419354839 497.6419372558594 789.9677419354839 496.7709695139239 Q 789.9677419354839 495.9000017719884 789.0967741935484 495.9000017719884 Q 788.2258064516129 495.9000017719884 787.3548387096774 495.9000017719884 Q 786.483870967742 495.9000017719884 785.6129032258065 495.9000017719884 Q 784.741935483871 495.9000017719884 783 495.0290340300529 Q 781.258064516129 494.1580662881174 780.3870967741935 493.28709854618194 Q 779.516129032258 492.41613080424645 778.6451612903226 492.41613080424645 Q 777.7741935483871 492.41613080424645 776.9032258064516 492.41613080424645 Q 776.0322580645161 492.41613080424645 775.1612903225806 492.41613080424645 L 774.2777225806451 492.41613080424645" stroke-linecap="round" />
</g>
<g transform="matrix(-0.38 0 0 0.38 784.27 540)" id="7ec8f2ce-a6d7-40bb-be27-e1c66d18c641"  >
<path style="stroke: rgb(0,0,0); stroke-width: 0; stroke-dasharray: none; stroke-linecap: butt; stroke-dashoffset: 0; stroke-linejoin: miter; stroke-miterlimit: 4; fill: rgb(101,101,101); fill-rule: nonzero; opacity: 1;" vector-effect="non-scaling-stroke"  transform=" translate(-50, -50)" d="M 16.28 19.945 L 19.957 16.32 C 22.060000000000002 14.166 25.578000000000003 14.166 27.681 16.32 L 50.007000000000005 38.595 L 72.333 16.32 C 74.43599999999999 14.166 77.954 14.166 80.054 16.32 L 83.68 19.945 C 85.834 22.046 85.834 25.566000000000003 83.68 27.668 L 61.405 49.993 L 83.68 72.32 C 85.834 74.422 85.834 77.939 83.68 80.04299999999999 L 80.054 83.72099999999999 C 77.95400000000001 85.82 74.436 85.82 72.333 83.72099999999999 L 50.007 61.393 L 27.681 83.721 C 25.578 85.82000000000001 22.060000000000002 85.82000000000001 19.957 83.721 L 16.28 80.043 C 14.180000000000001 77.93900000000001 14.180000000000001 74.42200000000001 16.28 72.32000000000001 L 38.606 49.99300000000001 L 16.28 27.667 C 14.18 25.566 14.18 22.046 16.28 19.945 z" stroke-linecap="round" />
</g>
<g transform="matrix(-0.37 0 0 0.37 741.05 561.63)" id="1900f0da-7aa8-46c5-859c-f4de00bebad2"  >
<path style="stroke: rgb(0,0,0); stroke-width: 0; stroke-dasharray: none; stroke-linecap: butt; stroke-dashoffset: 0; stroke-linejoin: miter; stroke-miterlimit: 4; fill: rgb(101,101,101); fill-rule: nonzero; opacity: 1;" vector-effect="non-scaling-stroke"  transform=" translate(-50, -50)" d="M 16.28 19.945 L 19.957 16.32 C 22.060000000000002 14.166 25.578000000000003 14.166 27.681 16.32 L 50.007000000000005 38.595 L 72.333 16.32 C 74.43599999999999 14.166 77.954 14.166 80.054 16.32 L 83.68 19.945 C 85.834 22.046 85.834 25.566000000000003 83.68 27.668 L 61.405 49.993 L 83.68 72.32 C 85.834 74.422 85.834 77.939 83.68 80.04299999999999 L 80.054 83.72099999999999 C 77.95400000000001 85.82 74.436 85.82 72.333 83.72099999999999 L 50.007 61.393 L 27.681 83.721 C 25.578 85.82000000000001 22.060000000000002 85.82000000000001 19.957 83.721 L 16.28 80.043 C 14.180000000000001 77.93900000000001 14.180000000000001 74.42200000000001 16.28 72.32000000000001 L 38.606 49.99300000000001 L 16.28 27.667 C 14.18 25.566 14.18 22.046 16.28 19.945 z" stroke-linecap="round" />
</g>
<g transform="matrix(2.18 0 0 0.89 780.18 644.84)" id="7e2d2651-0bdc-481f-8df0-c26775a5e8aa"  >
<path style="stroke: rgb(0,0,0); stroke-width: 0; stroke-dasharray: none; stroke-linecap: butt; stroke-dashoffset: 0; stroke-linejoin: miter; stroke-miterlimit: 4; fill: rgb(101,101,101); fill-rule: nonzero; opacity: 1;" vector-effect="non-scaling-stroke"  transform=" translate(-50, -50)" d="M 94.75 50 C 94.75 56.213 89.514 61.25 83.054 61.25 L 16.946 61.25 C 10.486 61.25 5.25 56.213 5.25 50 L 5.25 50 C 5.25 43.787 10.486 38.75 16.945999999999998 38.75 L 83.053 38.75 C 89.514 38.75 94.75 43.787 94.75 50 L 94.75 50 z" stroke-linecap="round" />
</g>
<g transform="matrix(-0.27 -2.16 0.88 -0.11 788.65 712.3)"  >
<path style="stroke: rgb(0,0,0); stroke-width: 0; stroke-dasharray: none; stroke-linecap: butt; stroke-dashoffset: 0; stroke-linejoin: miter; stroke-miterlimit: 4; fill: rgb(101,101,101); fill-rule: nonzero; opacity: 1;" vector-effect="non-scaling-stroke"  transform=" translate(-50, -50)" d="M 94.75 50 C 94.75 56.213 89.514 61.25 83.054 61.25 L 16.946 61.25 C 10.486 61.25 5.25 56.213 5.25 50 L 5.25 50 C 5.25 43.787 10.486 38.75 16.945999999999998 38.75 L 83.053 38.75 C 89.514 38.75 94.75 43.787 94.75 50 L 94.75 50 z" stroke-linecap="round" />
</g>
<g transform="matrix(0.48 -2.13 0.87 0.19 774.27 840.74)"  >
<path style="stroke: rgb(0,0,0); stroke-width: 0; stroke-dasharray: none; stroke-linecap: butt; stroke-dashoffset: 0; stroke-linejoin: miter; stroke-miterlimit: 4; fill: rgb(101,101,101); fill-rule: nonzero; opacity: 1;" vector-effect="non-scaling-stroke"  transform=" translate(-50, -50)" d="M 94.75 50 C 94.75 56.213 89.514 61.25 83.054 61.25 L 16.946 61.25 C 10.486 61.25 5.25 56.213 5.25 50 L 5.25 50 C 5.25 43.787 10.486 38.75 16.945999999999998 38.75 L 83.053 38.75 C 89.514 38.75 94.75 43.787 94.75 50 L 94.75 50 z" stroke-linecap="round" />
</g>
<g transform="matrix(-0.34 -2.15 0.88 -0.14 812.13 831.58)"  >
<path style="stroke: rgb(0,0,0); stroke-width: 0; stroke-dasharray: none; stroke-linecap: butt; stroke-dashoffset: 0; stroke-linejoin: miter; stroke-miterlimit: 4; fill: rgb(101,101,101); fill-rule: nonzero; opacity: 1;" vector-effect="non-scaling-stroke"  transform=" translate(-50, -50)" d="M 94.75 50 C 94.75 56.213 89.514 61.25 83.054 61.25 L 16.946 61.25 C 10.486 61.25 5.25 56.213 5.25 50 L 5.25 50 C 5.25 43.787 10.486 38.75 16.945999999999998 38.75 L 83.053 38.75 C 89.514 38.75 94.75 43.787 94.75 50 L 94.75 50 z" stroke-linecap="round" />
</g>
</svg>